<?xml version="1.0" encoding="utf-8"?>
<!-- Generator: Adobe Illustrator 24.3.0, SVG Export Plug-In . SVG Version: 6.00 Build 0)  -->
<svg version="1.1" id="Layer_1" xmlns="http://www.w3.org/2000/svg" xmlns:xlink="http://www.w3.org/1999/xlink" x="0px" y="0px"
	 viewBox="0 0 206.96 268.34" style="enable-background:new 0 0 206.96 268.34;" xml:space="preserve">
<style type="text/css">
	.st0{fill:#050606;}
</style>
<path d="M65.65,43.55c-3.81-4.94-6.89-9.94-7.75-16.06c-1.05-7.49,0.13-14.31,6.74-18.8c6.67-4.52,13.71-3.89,20.55,0.04
	c0.6,0.34,1.18,0.7,1.76,1.06c9.01-13.83,25.51-12.03,32.49-0.61c3.92-1.16,7.65-3.01,11.5-3.28c12.13-0.86,20.02,8.41,18.27,20.54
	c-0.94,6.53-3.91,11.99-7.42,16.41c7.49,5.48,15.34,10.32,22.11,16.37c16.77,14.96,27.06,34.17,33.99,55.26
	c7.61,23.18,10.46,46.99,8.42,71.3c-1.4,16.76-5.34,32.81-14.89,47.03c-10.77,16.03-26.2,25.34-44.46,30.36
	c-19.9,5.48-40.21,5.93-60.63,4.45c-13.03-0.94-25.73-3.42-37.87-8.44c-23.68-9.79-37.91-27.65-44.23-52.09
	c-4.65-17.98-5.09-36.26-3.17-54.67c2.34-22.5,8.23-43.92,19.16-63.8c10.49-19.09,24.61-34.63,44.47-44.37
	C64.96,44.11,65.18,43.89,65.65,43.55z M103.81,255.41c12.59-0.23,25.36-1.04,37.84-4.29c17.53-4.56,32.19-13.2,41.39-29.48
	c6.06-10.73,8.88-22.44,10.06-34.56c1.93-19.96,0.34-39.69-4.79-59.08c-5.6-21.16-14.59-40.56-30.13-56.41
	c-24.35-24.82-61.76-30.25-92.09-13.3c-15.95,8.91-27,22.49-35.4,38.38c-10.03,18.98-15.25,39.34-16.97,60.67
	c-1.2,14.87-0.83,29.64,2.54,44.23c5.43,23.54,19.11,39.79,42.29,47.55C73.16,254.01,88.3,255.18,103.81,255.41z M87.23,36.91
	c-1.14-3.79-1.97-7.32-3.29-10.66c-0.83-2.1-2.16-4.11-3.69-5.78c-1.69-1.85-4.05-2.86-6.56-1.56c-2.46,1.27-3.32,3.77-2.78,6.19
	c0.66,2.98,1.68,6.04,3.25,8.64c3.26,5.41,3.56,5.34,9.66,3.97C84.88,37.46,85.95,37.21,87.23,36.91z M119.67,36.93
	c1.26,0.25,2.24,0.42,3.21,0.64c6.46,1.47,6.55,1.44,10.16-4.07c0.39-0.59,0.8-1.17,1.1-1.8c1.48-3.14,2.65-6.35,1.48-9.87
	c-0.98-2.96-3.85-4.53-6.41-2.85c-2.3,1.51-4.5,3.78-5.7,6.23C121.78,28.74,120.98,32.75,119.67,36.93z M110.68,23.04
	c-0.27-0.12-0.54-0.24-0.81-0.36c-0.08-0.8-0.14-1.61-0.24-2.41c-0.51-4.13-3.1-7.18-6.12-7.2c-3.01-0.02-5.6,3.03-6.18,7.14
	c-0.75,5.32,1.03,9.93,3.89,14.23c1.05,1.58,3.64,1.68,4.45,0.03C107.51,30.75,109.03,26.86,110.68,23.04z"/>
<path d="M85.88,203.53c0.99-7.02,2.07-15.51,3.45-23.95c0.39-2.38-0.15-3.63-2.17-4.89c-4.96-3.09-9.78-6.4-14.62-9.68
	c-4.63-3.14-6.34-7.27-5.01-11.88c1.42-4.91,5.02-8.13,10.62-7.5c7.47,0.84,12.44-2.1,17.14-7.45c5.27-6.01,11.08-6.07,16.28-0.1
	c4.77,5.48,9.87,8.36,17.4,7.55c5.46-0.58,8.97,2.57,10.41,7.37c1.39,4.62-0.28,8.86-4.83,11.95c-5,3.39-10.02,6.77-15.12,10.01
	c-1.69,1.07-2.2,2.18-1.87,4.18c1.23,7.55,2.35,15.12,3.35,22.71c1.38,10.42-4.36,18.92-13.93,20.84
	C95.8,224.95,85.68,216.48,85.88,203.53z M87.05,158.98c2.31,1.56,4.61,3.15,6.94,4.69c3.11,2.05,6.26,5.7,9.35,5.66
	c3.24-0.04,6.46-3.6,9.65-5.68c2.35-1.53,4.65-3.15,6.97-4.74c-7.99,0.16-11.47-6.29-16.48-10.43
	C98.48,152.63,94.99,159.07,87.05,158.98z M98.8,205.19c-0.18,2.5,1.76,4.75,4.57,4.8c2.94,0.06,5.12-2.26,4.73-5.32
	c-0.86-6.67-1.82-13.33-2.86-19.98c-0.09-0.6-1.16-1.56-1.62-1.48c-0.72,0.12-1.78,0.92-1.88,1.56
	C100.68,191.42,99.79,198.09,98.8,205.19z"/>
<path d="M77.6,119.69c-0.02,3.57-3.05,6.6-6.54,6.52c-3.55-0.08-6.4-3.13-6.32-6.74c0.08-3.47,2.96-6.33,6.39-6.37
	C74.62,113.08,77.62,116.12,77.6,119.69z"/>
<path d="M142.22,120.09c-0.19,3.43-3.24,6.24-6.63,6.12c-3.54-0.13-6.37-3.23-6.24-6.82c0.13-3.56,3.32-6.5,6.79-6.26
	C139.73,113.38,142.43,116.47,142.22,120.09z"/>
</svg>
