<?xml version="1.0" encoding="utf-8"?>
<!-- Generator: Adobe Illustrator 24.3.0, SVG Export Plug-In . SVG Version: 6.00 Build 0)  -->
<svg version="1.1" id="Layer_1" xmlns="http://www.w3.org/2000/svg" xmlns:xlink="http://www.w3.org/1999/xlink" x="0px" y="0px"
	 viewBox="0 0 200.64 200.56" style="enable-background:new 0 0 200.64 200.56;" xml:space="preserve">
<style type="text/css">
	.st0{fill:#050606;}
</style>
<g>
	<path class="st0" d="M196.23,78.16c-3.11-1.79-6.23-3.55-9.35-5.34c-8.83-5.05-17.66-10.11-26.5-15.16
		c-0.72-0.41-1.66-0.58-0.47-1.7c5.97-5.66,9.84-12.5,11.72-20.55c2.72-11.73,0.56-22.48-6-32.44c-1.81-2.75-4.52-3.6-7.3-2.49
		c-2.57,1.03-3.32,3.27-3.85,5.72c-1.7,7.96-5.74,14.52-12.16,19.5c-3.45,2.68-7.04,5.2-10.69,7.59c-4.8,3.14-9.05,7.05-14.93,8.62
		c-8.67,2.3-17.31,3.31-26.09,1.5c-4.86-1-9.86-1.76-14.09-4.83c-4.85-3.53-9.75-7.01-14.75-10.33
		C53.3,22.63,47.86,15.02,45.91,4.99c-0.52-2.66-2.1-4.33-4.72-4.86c-2.6-0.53-4.59,0.62-6.04,2.72
		c-4.42,6.38-6.87,13.48-7.17,21.21c-0.48,12.47,3.81,23.13,12.75,31.87c1.01,0.99,0.59,1.22-0.31,1.72
		c-2.45,1.36-4.87,2.79-7.3,4.18c-9.91,5.66-19.83,11.31-29.74,16.99C0.24,80.6-0.9,83.84,0.76,86.8
		c2.91,5.23,6.88,9.47,12.26,12.27v0c7.72,4.68,16,5.77,24.7,3.61c1.62-0.4,2.2,0.04,2.26,1.57c0.01,0.39,0.03,0.78,0.05,1.17
		c0.29,7.58,1.35,15.07,2.87,22.47c3.13,15.2,8.34,29.69,15.57,43.44c0.46,0.87,0.76,1.74,0.89,2.74
		c1.68,12.76,9.96,22.42,21.85,25.57c1.04,0.28,2.18,0.22,3.1,0.92c10.58,0,21.15,0,31.73,0c0.21-0.12,0.4-0.31,0.62-0.35
		c13.39-2.45,22.51-11.81,24.56-25.36c0.29-1.89,0.83-3.61,1.77-5.27c3.39-6.03,6.04-12.39,8.36-18.89
		c2.91-8.16,5.22-16.46,6.77-25.02c1.25-6.87,2.26-13.73,2.56-20.69c0.44-2.51,0.44-2.51,2.99-1.96
		c13.88,2.98,28.01-2.93,35.53-14.89c0.55-0.87,0.97-1.82,1.45-2.74c0-0.91,0-1.83,0-2.74C199.67,80.66,198.11,79.24,196.23,78.16z
		 M160.53,22.37c0.88,2.22,0.65,4.05,0.48,5.78c-0.72,7.43-3.52,13.92-8.98,19.16c-0.85,0.81-1.41,1.02-2.44,0.21
		c-2.9-2.3-6.21-3.93-9.99-5.51C147.72,36.56,155.56,31.29,160.53,22.37z M39.83,22.98c0-0.04,0.1-0.08,0.48-0.35
		c4.78,8.6,12.65,13.88,20.78,19.39c-4.02,1.68-7.45,3.48-10.51,5.9c-0.52,0.41-0.93,0.28-1.37-0.13
		C42.08,41.02,38.93,32.77,39.83,22.98z M15.99,84.96c7.64-3.94,14.96-8.45,22.46-12.65c0.28-0.15,0.57-0.28,1.16-0.56
		c0,5.81-0.02,11.35,0.02,16.89c0.01,0.89-0.42,1.24-1.14,1.58c-6.9,3.3-16.96,1.84-22.61-3.29C15.07,86.18,14.63,85.66,15.99,84.96
		z M112.86,188.76c-4.17,0.13-8.35,0.02-13.76,0.02c-3.71-0.22-8.69,0.5-13.61-0.32c-8.83-1.49-15.1-9.59-14.47-18.57
		c0.63-8.88,8.12-16.15,17.03-16.29c8.22-0.13,16.44-0.14,24.66,0c9.38,0.16,16.99,8.1,17.02,17.5
		C129.76,180.53,122.23,188.47,112.86,188.76z M136.78,155.09c-1.58-1.95-3.04-3.93-4.88-5.58c-5.69-5.09-12.33-7.67-19.95-7.7
		c-7.63-0.02-15.27-0.03-22.9,0c-10.15,0.04-18.25,4.19-24.33,12.3c-0.23,0.3-0.46,0.6-0.91,1.18
		C55.92,136.8,51.7,117.8,51.33,97.95l0,0c0.02-10.05,0.32-20.11-0.07-30.15c-0.17-4.35,1.87-7.02,4.7-9.42
		c4.06-3.45,8.75-5.71,14.1-6.48c3.58-0.51,7.03-0.02,10.41,1.06c13.27,4.22,26.53,4.2,39.8-0.01c9.44-3,17.45-0.29,24.78,5.93
		c3.34,2.83,4.52,5.95,4.37,10.31c-0.33,9.78-0.11,19.58-0.15,29.37c-0.01,2.15-0.14,4.29-0.22,6.44
		C147.66,126.98,141.11,146.35,136.78,155.09z M184.74,87c-6.88,5.27-14.34,6.45-22.43,3.24c-0.6-0.24-1.22-0.44-1.22-1.31
		c0.02-5.65,0.01-11.3,0.01-17.3c3.29,1.88,6.33,3.62,9.36,5.35c4.69,2.68,9.35,5.39,14.07,8.01
		C185.76,85.68,185.85,86.15,184.74,87z"/>
	<path class="st0" d="M78.81,92.72c-0.12-3.28-2.72-5.79-5.92-5.77c-3.21,0.02-5.76,2.53-5.84,5.85C66.99,95.4,67,98,67.05,100.6
		c0.06,3.42,2.63,5.98,5.92,5.96c3.29-0.02,5.78-2.58,5.85-6.04c0.02-1.24,0-2.47,0-3.71c0,0,0,0-0.01,0
		C78.82,95.45,78.86,94.08,78.81,92.72z"/>
	<path class="st0" d="M133.66,92.86c-0.09-3.41-2.68-5.96-5.97-5.91c-3.2,0.04-5.72,2.57-5.79,5.9c-0.05,2.6-0.05,5.21,0,7.81
		c0.06,3.32,2.58,5.86,5.78,5.91c3.29,0.06,5.9-2.5,6-5.89c0.04-1.3,0.01-2.6,0-3.9C133.67,95.46,133.7,94.16,133.66,92.86z"/>
	<path class="st0" d="M88.89,165.31c-3.18-0.16-5.98,2.36-6.16,5.53c-0.19,3.25,2.42,6.11,5.68,6.22c3.17,0.11,5.94-2.46,6.07-5.63
		C94.61,168.25,92.07,165.47,88.89,165.31z"/>
	<path class="st0" d="M112.18,165.31c-3.18-0.04-5.89,2.57-5.95,5.75c-0.07,3.26,2.64,6.02,5.9,6c3.18-0.01,5.84-2.67,5.86-5.85
		C118,168.03,115.36,165.35,112.18,165.31z"/>
</g>
</svg>
