<?xml version="1.0" encoding="utf-8"?>
<!-- Generator: Adobe Illustrator 24.3.0, SVG Export Plug-In . SVG Version: 6.00 Build 0)  -->
<svg version="1.1" id="Layer_1" xmlns="http://www.w3.org/2000/svg" xmlns:xlink="http://www.w3.org/1999/xlink" x="0px" y="0px"
	 viewBox="0 0 230.98 173.23" style="enable-background:new 0 0 230.98 173.23;" xml:space="preserve">
<style type="text/css">
	.st0{fill:#050606;}
</style>
<g>
	<path d="M0,41.97c1.74-3.62,4.78-3.61,8.22-3.25c10.22,1.07,19.75,3.99,27.8,10.5c3.52,2.85,6.45,6.42,9.67,9.69
		c4.68-2.69,9.65-5.62,14.7-8.4c2.95-1.63,6-3.11,9.07-4.48c1.43-0.64,1.65-1.39,1.17-2.78c-4.11-11.9-8.17-23.82-12.27-35.72
		C57.7,5.6,57.36,3.76,58.7,1.97c1.33-1.77,3.15-2.16,5.22-1.9c17.22,2.22,34.21,5.43,50.49,11.68c10.31,3.96,20.02,8.9,27.63,17.25
		c0.79,0.87,2.57,0.97,3.93,1.16c28.63,3.99,52.25,17.13,70.73,39.26c4.93,5.91,8.91,12.61,13.29,18.98
		c1.37,1.99,1.23,4.03,0.02,6.13c-11.16,19.36-26.01,35.03-45.75,45.8c-12.52,6.83-25.87,11.11-40.07,12.65
		c-3.51,0.38-7.04,0.55-10.55,0.91c-0.74,0.08-1.64,0.38-2.13,0.9c-9.07,9.6-20.65,14.22-33.27,16.59
		c-5.29,0.99-10.7,1.43-16.08,1.85c-3.05,0.24-5.1-1.75-5.12-4.74c-0.03-7.07,0.35-14.12,2.55-20.92c0.55-1.7,1.36-3.31,2.17-5.23
		c-12.56-5.28-24.92-10.99-35.76-18.43c-3.83,3.7-7.18,7.59-11.17,10.65c-8.61,6.6-18.72,9.24-29.43,9.84
		c-2.72,0.15-4.33-1.31-5.42-3.59c0-3.01,0-6.02,0-9.02c0.16-0.79,0.37-1.58,0.46-2.38c0.94-8.54,2.47-16.97,6.51-24.63
		c2.5-4.73,5.68-9.1,8.67-13.81c-0.69-0.79-1.78-1.93-2.75-3.16C6.34,79.52,2.93,69.94,1.33,59.63C0.89,56.75,0.44,53.87,0,51
		C0,47.99,0,44.98,0,41.97z M220.6,91.48c-1.2-1.91-2.29-3.72-3.45-5.47c-1.21-1.81-2.45-3.61-3.76-5.35
		C200.1,63,183.21,50.25,162.05,43.53c-16.76-5.32-33.79-6.65-51.05-2.43c-14.49,3.55-28.26,9.05-41.6,15.63
		c-7.94,3.92-15.77,8.07-22.54,13.94c-2.59,2.25-5.95,1.25-7.57-2.14c-2.17-4.56-5.13-8.45-9.12-11.56
		c-5.93-4.62-12.71-7.09-20.56-8.33c0.58,4.25,0.9,8.21,1.7,12.07c2.23,10.66,6.11,20.39,15.58,26.94c2.87,1.98,2.61,5.72-0.21,7.84
		c-1.32,0.99-2.72,1.91-3.88,3.07c-6.58,6.56-9.82,14.8-11.52,23.72c-0.74,3.86-1.09,7.79-1.63,11.79c0.74,0,0.97,0.03,1.19,0
		c12.2-2.15,22.29-7.41,28.08-19.03c2.25-4.53,5.26-5.09,9.13-1.85c1.78,1.49,3.65,2.9,5.61,4.15c13.34,8.54,27.76,14.8,42.62,20.15
		c17.49,6.3,35.32,8.79,53.75,5.03C181.18,136.15,204.18,118.55,220.6,91.48z M126.6,28.68c-17.28-10.69-36.61-14.71-56.46-18
		c3.51,10.41,6.88,20.37,10.3,30.51C95.33,35.26,110.42,30.2,126.6,28.68z M118.03,153.54c-8.27-2.33-16.56-4.57-24.79-7.04
		c-1.83-0.55-2.6-0.05-3.33,1.43c-2.37,4.82-2.8,9.98-3.01,15.35C98.17,162.13,108.75,159.61,118.03,153.54z"/>
	<path d="M134.67,93.53c0.28-16.22,2.85-29.74,9.89-42.11c0.76-1.34,2.38-2.48,3.86-3.04c1.68-0.63,3.42,0.14,4.55,1.68
		c1.29,1.76,1.12,3.61,0.28,5.53c-1.85,4.25-3.95,8.43-5.36,12.83c-3.74,11.71-4.26,23.71-2.42,35.82
		c1.23,8.07,3.64,15.74,7.63,22.91c1.6,2.87,0.85,5.64-1.64,7.03c-2.49,1.39-5.11,0.5-6.79-2.39c-4.74-8.15-7.45-17.01-8.79-26.28
		C135.21,100.84,134.92,96.11,134.67,93.53z"/>
	<path d="M115.37,93.81c0.36-16.51,2.91-30.02,9.9-42.43c1.74-3.08,4.61-4.04,7.14-2.52c2.34,1.41,2.77,4.13,1.39,7.14
		c-1.83,4.01-3.86,8-5.13,12.2c-4.88,16.11-4.63,32.24,0.47,48.29c0.29,0.92,0.61,1.85,0.79,2.8c0.48,2.66-0.88,5.01-3.21,5.66
		c-2.55,0.71-5.08-0.44-5.93-3.14c-1.42-4.49-2.87-9.02-3.71-13.65C116.09,102.64,115.74,97.01,115.37,93.81z"/>
	<path d="M173.15,86.63c-5.29-0.03-9.55-4.35-9.52-9.65c0.03-5.28,4.35-9.63,9.59-9.65c5.32-0.02,9.71,4.47,9.62,9.83
		C182.76,82.5,178.49,86.66,173.15,86.63z"/>
</g>
</svg>
