<?xml version="1.0" encoding="utf-8"?>
<!-- Generator: Adobe Illustrator 24.3.0, SVG Export Plug-In . SVG Version: 6.00 Build 0)  -->
<svg version="1.1" id="Layer_1" xmlns="http://www.w3.org/2000/svg" xmlns:xlink="http://www.w3.org/1999/xlink" x="0px" y="0px"
	 viewBox="0 0 197.02 177.32" style="enable-background:new 0 0 197.02 177.32;" xml:space="preserve">
<style type="text/css">
	.st0{fill:#050606;}
</style>
<g>
	<path d="M0,9.79c1.09-2.45,3.1-3.7,5.54-4.62C15.3,1.5,25.3-0.57,35.78,0.15c15.44,1.06,27.21,8.17,35.24,21.42
		c0.36,0.6,0.71,1.2,1.17,1.96c8.47-3.2,17.18-4.96,26.24-4.95c9.07,0.01,17.8,1.66,26.19,4.91c1.87-2.66,3.52-5.33,5.49-7.74
		c7.93-9.75,18.35-14.65,30.77-15.57c11.02-0.81,21.51,1.42,31.69,5.46c3.43,1.36,4.87,3.5,4.36,6.99
		c-1.94,13.28-6.01,25.77-14.11,36.69c-4.27,5.76-7.96,8.83-16.6,13.93c0.27,0.6,0.52,1.23,0.82,1.84
		c6.67,13.47,11.08,27.67,12.91,42.57c1.44,11.72,0.67,23.27-4.34,34.24c-5.45,11.92-14.61,20.05-26.23,25.64
		c-9.67,4.65-19.98,7.08-30.56,8.44c-8.85,1.14-17.73,1.65-26.65,1.19c-15.63-0.8-30.96-3.03-45.21-10
		c-15.2-7.44-25.29-19.09-29.03-35.84c-1.81-8.1-1.83-16.28-0.74-24.46c2.01-15.09,6.54-29.42,13.4-43.01
		c0.08-0.16,0.12-0.35,0.21-0.62c-1.66-0.96-3.35-1.84-4.94-2.88c-9.4-6.17-15.39-15.04-19.67-25.21
		c-2.79-6.63-4.74-13.5-5.81-20.62C0.31,14.2,0.12,13.92,0,13.64C0,12.35,0,11.07,0,9.79z M99.98,165.74
		c2.34-0.12,5.86-0.24,9.37-0.49c10.83-0.78,21.46-2.57,31.61-6.63c18.41-7.36,27.99-21.49,27.96-41.31
		c-0.01-7.41-1.24-14.65-3.07-21.81c-4.05-15.8-10.21-30.6-20.92-43.14c-11.14-13.04-25.09-21.06-42.4-22.1
		c-17.58-1.06-32.89,4.65-45.63,16.89c-9.13,8.76-15.48,19.38-20.11,31.05c-5.16,12.99-8.86,26.34-8.67,40.46
		c0.12,8.94,2.21,17.37,7.56,24.76c6.25,8.63,15.04,13.54,24.89,16.8C72.96,164.34,85.8,165.55,99.98,165.74z M184.8,15.08
		c-10.48-3.33-20.85-5.02-31.46-1.75c-8.13,2.5-13.88,7.9-17.92,15.2c0.13,0.22,0.17,0.38,0.26,0.43
		c9.61,5.91,17.27,13.82,23.62,23.07c0.69,1.01,1.3,0.92,2.22,0.46c3.67-1.81,6.87-4.24,9.59-7.28
		C178.74,36.69,182.37,26.34,184.8,15.08z M12.25,15.05c1.97,9.66,5.07,18.59,10.7,26.5c3.21,4.5,7.18,8.14,12.11,10.75
		c1.48,0.78,2.16,0.51,3.06-0.81c4.51-6.6,9.81-12.51,16.08-17.48c2.39-1.89,4.92-3.59,7.44-5.41c-4.03-7.15-9.52-12.47-17.34-15.05
		C33.52,9.99,22.96,11.65,12.25,15.05z"/>
	<path d="M98.2,154.11c-8.8-0.1-16.8-2.58-23.53-8.4c-11.55-9.99-12.25-28.36-1.28-39.67c7.16-7.39,16.05-11.32,26.48-11.18
		c11.86,0.17,25.28,9.19,29.35,19.86c5.38,14.11,1.08,28.72-14.63,35.9C109.29,153.04,104.21,154.11,98.2,154.11z M119.74,126.3
		c0-4.94-1.31-9.17-4.66-12.36c-10.54-10.03-22.87-9.96-33.26,0.12c-5.83,5.66-7.46,18.37,2.52,24.48c8.81,5.4,20.6,5.3,29.06-0.55
		C117.6,135.09,119.85,131.15,119.74,126.3z"/>
	<path d="M59.5,78.84c3.1,0.05,5.74,2.7,5.76,5.79c0.02,3.12-2.8,5.91-5.9,5.85c-3.05-0.05-5.75-2.77-5.76-5.81
		C53.57,81.56,56.38,78.79,59.5,78.84z"/>
	<path d="M137.86,78.85c3.13,0.2,5.69,2.97,5.55,5.99c-0.15,3.16-3.06,5.85-6.11,5.64c-3.1-0.21-5.67-3.01-5.54-6.01
		C131.9,81.27,134.76,78.64,137.86,78.85z"/>
	<path d="M88.62,130.23c-3.13-0.02-5.75-2.6-5.79-5.7c-0.04-3.13,2.7-5.85,5.88-5.83c3.11,0.02,5.74,2.63,5.78,5.73
		C94.53,127.61,91.87,130.25,88.62,130.23z"/>
	<path d="M108.25,130.23c-3.14-0.03-5.73-2.62-5.74-5.73c-0.01-3.16,2.71-5.84,5.9-5.8c3.09,0.04,5.74,2.69,5.76,5.76
		C114.18,127.64,111.49,130.26,108.25,130.23z"/>
</g>
</svg>
